G75*
G70*
%OFA0B0*%
%FSLAX24Y24*%
%IPPOS*%
%LPD*%
%AMOC8*
5,1,8,0,0,1.08239X$1,22.5*
%
%ADD10C,0.0000*%
%ADD11C,0.0110*%
%ADD12C,0.0040*%
%ADD13C,0.0060*%
%ADD14C,0.0090*%
%ADD15C,0.0030*%
%ADD16C,0.0080*%
%ADD17C,0.0100*%
%ADD18C,0.0050*%
%ADD19R,0.0197X0.0295*%
D10*
X000222Y000150D02*
X000222Y032512D01*
X036396Y032512D01*
X036396Y000150D01*
X000222Y000150D01*
X006742Y005760D02*
X006744Y005810D01*
X006750Y005860D01*
X006760Y005909D01*
X006774Y005957D01*
X006791Y006004D01*
X006812Y006049D01*
X006837Y006093D01*
X006865Y006134D01*
X006897Y006173D01*
X006931Y006210D01*
X006968Y006244D01*
X007008Y006274D01*
X007050Y006301D01*
X007094Y006325D01*
X007140Y006346D01*
X007187Y006362D01*
X007235Y006375D01*
X007285Y006384D01*
X007334Y006389D01*
X007385Y006390D01*
X007435Y006387D01*
X007484Y006380D01*
X007533Y006369D01*
X007581Y006354D01*
X007627Y006336D01*
X007672Y006314D01*
X007715Y006288D01*
X007756Y006259D01*
X007795Y006227D01*
X007831Y006192D01*
X007863Y006154D01*
X007893Y006114D01*
X007920Y006071D01*
X007943Y006027D01*
X007962Y005981D01*
X007978Y005933D01*
X007990Y005884D01*
X007998Y005835D01*
X008002Y005785D01*
X008002Y005735D01*
X007998Y005685D01*
X007990Y005636D01*
X007978Y005587D01*
X007962Y005539D01*
X007943Y005493D01*
X007920Y005449D01*
X007893Y005406D01*
X007863Y005366D01*
X007831Y005328D01*
X007795Y005293D01*
X007756Y005261D01*
X007715Y005232D01*
X007672Y005206D01*
X007627Y005184D01*
X007581Y005166D01*
X007533Y005151D01*
X007484Y005140D01*
X007435Y005133D01*
X007385Y005130D01*
X007334Y005131D01*
X007285Y005136D01*
X007235Y005145D01*
X007187Y005158D01*
X007140Y005174D01*
X007094Y005195D01*
X007050Y005219D01*
X007008Y005246D01*
X006968Y005276D01*
X006931Y005310D01*
X006897Y005347D01*
X006865Y005386D01*
X006837Y005427D01*
X006812Y005471D01*
X006791Y005516D01*
X006774Y005563D01*
X006760Y005611D01*
X006750Y005660D01*
X006744Y005710D01*
X006742Y005760D01*
X033514Y005760D02*
X033516Y005810D01*
X033522Y005860D01*
X033532Y005909D01*
X033546Y005957D01*
X033563Y006004D01*
X033584Y006049D01*
X033609Y006093D01*
X033637Y006134D01*
X033669Y006173D01*
X033703Y006210D01*
X033740Y006244D01*
X033780Y006274D01*
X033822Y006301D01*
X033866Y006325D01*
X033912Y006346D01*
X033959Y006362D01*
X034007Y006375D01*
X034057Y006384D01*
X034106Y006389D01*
X034157Y006390D01*
X034207Y006387D01*
X034256Y006380D01*
X034305Y006369D01*
X034353Y006354D01*
X034399Y006336D01*
X034444Y006314D01*
X034487Y006288D01*
X034528Y006259D01*
X034567Y006227D01*
X034603Y006192D01*
X034635Y006154D01*
X034665Y006114D01*
X034692Y006071D01*
X034715Y006027D01*
X034734Y005981D01*
X034750Y005933D01*
X034762Y005884D01*
X034770Y005835D01*
X034774Y005785D01*
X034774Y005735D01*
X034770Y005685D01*
X034762Y005636D01*
X034750Y005587D01*
X034734Y005539D01*
X034715Y005493D01*
X034692Y005449D01*
X034665Y005406D01*
X034635Y005366D01*
X034603Y005328D01*
X034567Y005293D01*
X034528Y005261D01*
X034487Y005232D01*
X034444Y005206D01*
X034399Y005184D01*
X034353Y005166D01*
X034305Y005151D01*
X034256Y005140D01*
X034207Y005133D01*
X034157Y005130D01*
X034106Y005131D01*
X034057Y005136D01*
X034007Y005145D01*
X033959Y005158D01*
X033912Y005174D01*
X033866Y005195D01*
X033822Y005219D01*
X033780Y005246D01*
X033740Y005276D01*
X033703Y005310D01*
X033669Y005347D01*
X033637Y005386D01*
X033609Y005427D01*
X033584Y005471D01*
X033563Y005516D01*
X033546Y005563D01*
X033532Y005611D01*
X033522Y005660D01*
X033516Y005710D01*
X033514Y005760D01*
X033514Y031351D02*
X033516Y031401D01*
X033522Y031451D01*
X033532Y031500D01*
X033546Y031548D01*
X033563Y031595D01*
X033584Y031640D01*
X033609Y031684D01*
X033637Y031725D01*
X033669Y031764D01*
X033703Y031801D01*
X033740Y031835D01*
X033780Y031865D01*
X033822Y031892D01*
X033866Y031916D01*
X033912Y031937D01*
X033959Y031953D01*
X034007Y031966D01*
X034057Y031975D01*
X034106Y031980D01*
X034157Y031981D01*
X034207Y031978D01*
X034256Y031971D01*
X034305Y031960D01*
X034353Y031945D01*
X034399Y031927D01*
X034444Y031905D01*
X034487Y031879D01*
X034528Y031850D01*
X034567Y031818D01*
X034603Y031783D01*
X034635Y031745D01*
X034665Y031705D01*
X034692Y031662D01*
X034715Y031618D01*
X034734Y031572D01*
X034750Y031524D01*
X034762Y031475D01*
X034770Y031426D01*
X034774Y031376D01*
X034774Y031326D01*
X034770Y031276D01*
X034762Y031227D01*
X034750Y031178D01*
X034734Y031130D01*
X034715Y031084D01*
X034692Y031040D01*
X034665Y030997D01*
X034635Y030957D01*
X034603Y030919D01*
X034567Y030884D01*
X034528Y030852D01*
X034487Y030823D01*
X034444Y030797D01*
X034399Y030775D01*
X034353Y030757D01*
X034305Y030742D01*
X034256Y030731D01*
X034207Y030724D01*
X034157Y030721D01*
X034106Y030722D01*
X034057Y030727D01*
X034007Y030736D01*
X033959Y030749D01*
X033912Y030765D01*
X033866Y030786D01*
X033822Y030810D01*
X033780Y030837D01*
X033740Y030867D01*
X033703Y030901D01*
X033669Y030938D01*
X033637Y030977D01*
X033609Y031018D01*
X033584Y031062D01*
X033563Y031107D01*
X033546Y031154D01*
X033532Y031202D01*
X033522Y031251D01*
X033516Y031301D01*
X033514Y031351D01*
X006742Y031351D02*
X006744Y031401D01*
X006750Y031451D01*
X006760Y031500D01*
X006774Y031548D01*
X006791Y031595D01*
X006812Y031640D01*
X006837Y031684D01*
X006865Y031725D01*
X006897Y031764D01*
X006931Y031801D01*
X006968Y031835D01*
X007008Y031865D01*
X007050Y031892D01*
X007094Y031916D01*
X007140Y031937D01*
X007187Y031953D01*
X007235Y031966D01*
X007285Y031975D01*
X007334Y031980D01*
X007385Y031981D01*
X007435Y031978D01*
X007484Y031971D01*
X007533Y031960D01*
X007581Y031945D01*
X007627Y031927D01*
X007672Y031905D01*
X007715Y031879D01*
X007756Y031850D01*
X007795Y031818D01*
X007831Y031783D01*
X007863Y031745D01*
X007893Y031705D01*
X007920Y031662D01*
X007943Y031618D01*
X007962Y031572D01*
X007978Y031524D01*
X007990Y031475D01*
X007998Y031426D01*
X008002Y031376D01*
X008002Y031326D01*
X007998Y031276D01*
X007990Y031227D01*
X007978Y031178D01*
X007962Y031130D01*
X007943Y031084D01*
X007920Y031040D01*
X007893Y030997D01*
X007863Y030957D01*
X007831Y030919D01*
X007795Y030884D01*
X007756Y030852D01*
X007715Y030823D01*
X007672Y030797D01*
X007627Y030775D01*
X007581Y030757D01*
X007533Y030742D01*
X007484Y030731D01*
X007435Y030724D01*
X007385Y030721D01*
X007334Y030722D01*
X007285Y030727D01*
X007235Y030736D01*
X007187Y030749D01*
X007140Y030765D01*
X007094Y030786D01*
X007050Y030810D01*
X007008Y030837D01*
X006968Y030867D01*
X006931Y030901D01*
X006897Y030938D01*
X006865Y030977D01*
X006837Y031018D01*
X006812Y031062D01*
X006791Y031107D01*
X006774Y031154D01*
X006760Y031202D01*
X006750Y031251D01*
X006744Y031301D01*
X006742Y031351D01*
D11*
X006900Y009390D02*
X006802Y009292D01*
X006802Y008898D01*
X006900Y008799D01*
X007097Y008799D01*
X007196Y008898D01*
X007196Y009292D01*
X007097Y009390D01*
X006900Y009390D01*
X006551Y009390D02*
X006551Y008799D01*
X006157Y008799D02*
X006157Y009390D01*
X006354Y009193D01*
X006551Y009390D01*
X007446Y009390D02*
X007840Y009390D01*
X007643Y009390D02*
X007643Y008799D01*
X008091Y009390D02*
X008485Y009390D01*
X008288Y009390D02*
X008288Y008799D01*
X008736Y008898D02*
X008736Y009292D01*
X008834Y009390D01*
X009031Y009390D01*
X009129Y009292D01*
X009129Y008898D01*
X009031Y008799D01*
X008834Y008799D01*
X008736Y008898D01*
X009380Y008898D02*
X009478Y008799D01*
X009774Y008799D01*
X009774Y009390D01*
X009478Y009390D01*
X009380Y009292D01*
X009380Y009193D01*
X009478Y009095D01*
X009774Y009095D01*
X009478Y009095D02*
X009380Y008996D01*
X009380Y008898D01*
D12*
X010630Y003741D02*
X010630Y003664D01*
X010937Y003357D01*
X010937Y003280D01*
X011090Y003280D02*
X011244Y003434D01*
X011167Y003434D02*
X011397Y003434D01*
X011397Y003280D02*
X011397Y003741D01*
X011167Y003741D01*
X011090Y003664D01*
X011090Y003510D01*
X011167Y003434D01*
X010937Y003741D02*
X010630Y003741D01*
X010217Y001538D02*
X010140Y001538D01*
X010063Y001461D01*
X010063Y001308D01*
X010140Y001231D01*
X010217Y001231D01*
X010293Y001308D01*
X010293Y001461D01*
X010217Y001538D01*
X010063Y001461D02*
X009986Y001538D01*
X009910Y001538D01*
X009833Y001461D01*
X009833Y001308D01*
X009910Y001231D01*
X009986Y001231D01*
X010063Y001308D01*
X010063Y001078D02*
X009986Y001001D01*
X009986Y000771D01*
X009833Y000771D02*
X010293Y000771D01*
X010293Y001001D01*
X010217Y001078D01*
X010063Y001078D01*
X009986Y000924D02*
X009833Y001078D01*
X031929Y020046D02*
X031929Y020199D01*
X031929Y020123D02*
X032389Y020123D01*
X032389Y020199D02*
X032389Y020046D01*
X032312Y020353D02*
X032005Y020353D01*
X031929Y020430D01*
X031929Y020583D01*
X032005Y020660D01*
X032005Y020813D02*
X031929Y020890D01*
X031929Y021044D01*
X032005Y021120D01*
X032082Y021120D01*
X032159Y021044D01*
X032159Y020967D01*
X032159Y021044D02*
X032235Y021120D01*
X032312Y021120D01*
X032389Y021044D01*
X032389Y020890D01*
X032312Y020813D01*
X032312Y020660D02*
X032389Y020583D01*
X032389Y020430D01*
X032312Y020353D01*
X023384Y020625D02*
X023384Y020855D01*
X023307Y020932D01*
X023154Y020932D01*
X023077Y020855D01*
X023077Y020625D01*
X022924Y020625D02*
X023384Y020625D01*
X023077Y020779D02*
X022924Y020932D01*
X022924Y021086D02*
X022924Y021393D01*
X022924Y021239D02*
X023384Y021239D01*
X023230Y021086D01*
X021278Y025062D02*
X020817Y025062D01*
X020971Y025062D02*
X020971Y025292D01*
X021047Y025369D01*
X021201Y025369D01*
X021278Y025292D01*
X021278Y025062D01*
X020971Y025216D02*
X020817Y025369D01*
X020894Y025523D02*
X020817Y025599D01*
X020817Y025753D01*
X020894Y025830D01*
X020971Y025830D01*
X021047Y025753D01*
X021047Y025523D01*
X020894Y025523D01*
X021047Y025523D02*
X021201Y025676D01*
X021278Y025830D01*
X020254Y025830D02*
X020254Y025523D01*
X020024Y025523D01*
X020101Y025676D01*
X020101Y025753D01*
X020024Y025830D01*
X019870Y025830D01*
X019794Y025753D01*
X019794Y025599D01*
X019870Y025523D01*
X019794Y025369D02*
X019947Y025216D01*
X019947Y025292D02*
X019947Y025062D01*
X019794Y025062D02*
X020254Y025062D01*
X020254Y025292D01*
X020177Y025369D01*
X020024Y025369D01*
X019947Y025292D01*
X018931Y025404D02*
X018854Y025327D01*
X018701Y025327D01*
X018624Y025404D01*
X018470Y025558D02*
X018240Y025788D01*
X018240Y025327D01*
X018163Y025558D02*
X018470Y025558D01*
X018624Y025711D02*
X018701Y025788D01*
X018854Y025788D01*
X018931Y025711D01*
X018931Y025404D01*
D13*
X019001Y025481D02*
X018571Y025481D01*
X018331Y025481D01*
X017901Y025481D01*
X018331Y025481D02*
X018333Y025502D01*
X018338Y025522D01*
X018347Y025541D01*
X018359Y025558D01*
X018374Y025573D01*
X018391Y025585D01*
X018410Y025594D01*
X018430Y025599D01*
X018451Y025601D01*
X018472Y025599D01*
X018492Y025594D01*
X018511Y025585D01*
X018528Y025573D01*
X018543Y025558D01*
X018555Y025541D01*
X018564Y025522D01*
X018569Y025502D01*
X018571Y025481D01*
X018569Y025502D01*
X018564Y025522D01*
X018555Y025541D01*
X018543Y025558D01*
X018528Y025573D01*
X018511Y025585D01*
X018492Y025594D01*
X018472Y025599D01*
X018451Y025601D01*
X018430Y025599D01*
X018410Y025594D01*
X018391Y025585D01*
X018374Y025573D01*
X018359Y025558D01*
X018347Y025541D01*
X018338Y025522D01*
X018333Y025502D01*
X018331Y025481D01*
X017901Y027441D02*
X019001Y027441D01*
X025633Y025046D02*
X025633Y019506D01*
X031004Y019506D01*
X031174Y019676D01*
X031174Y025046D01*
X025633Y025046D01*
X030499Y019961D02*
X030501Y019990D01*
X030507Y020019D01*
X030516Y020047D01*
X030530Y020073D01*
X030546Y020097D01*
X030566Y020119D01*
X030589Y020138D01*
X030613Y020154D01*
X030640Y020166D01*
X030668Y020175D01*
X030697Y020180D01*
X030726Y020181D01*
X030756Y020178D01*
X030784Y020171D01*
X030812Y020161D01*
X030837Y020146D01*
X030861Y020129D01*
X030882Y020109D01*
X030900Y020086D01*
X030915Y020060D01*
X030927Y020033D01*
X030935Y020005D01*
X030939Y019976D01*
X030939Y019946D01*
X030935Y019917D01*
X030927Y019889D01*
X030915Y019862D01*
X030900Y019836D01*
X030882Y019813D01*
X030861Y019793D01*
X030837Y019776D01*
X030812Y019761D01*
X030784Y019751D01*
X030756Y019744D01*
X030726Y019741D01*
X030697Y019742D01*
X030668Y019747D01*
X030640Y019756D01*
X030613Y019768D01*
X030589Y019784D01*
X030566Y019803D01*
X030546Y019825D01*
X030530Y019849D01*
X030516Y019875D01*
X030507Y019903D01*
X030501Y019932D01*
X030499Y019961D01*
D14*
X029927Y004294D02*
X029722Y004294D01*
X029654Y004226D01*
X029654Y004089D01*
X029722Y004021D01*
X029927Y004021D01*
X029791Y004021D02*
X029654Y003884D01*
X029467Y003884D02*
X029193Y004158D01*
X029193Y004226D01*
X029262Y004294D01*
X029399Y004294D01*
X029467Y004226D01*
X029467Y003884D02*
X029193Y003884D01*
X029927Y003884D02*
X029927Y004294D01*
D15*
X017479Y025144D02*
X017166Y025458D01*
X017479Y025144D01*
X017323Y025144D02*
X017323Y025458D01*
X017323Y025144D01*
X017166Y025144D02*
X017479Y025458D01*
X017166Y025144D01*
X017166Y025301D02*
X017479Y025301D01*
X017166Y025301D01*
D16*
X017254Y024671D02*
X017501Y024671D01*
X017625Y024548D01*
X017625Y023930D01*
X017625Y024548D01*
X017501Y024671D01*
X017254Y024671D01*
X017131Y024548D01*
X017131Y023930D01*
X017131Y024548D01*
X017254Y024671D01*
X017886Y024671D02*
X018380Y024671D01*
X017886Y024671D01*
X018133Y024671D02*
X018133Y023930D01*
X017886Y024177D01*
X018133Y023930D01*
X018133Y024671D01*
D17*
X015154Y024158D02*
X015154Y022386D01*
X013943Y022386D02*
X013717Y022386D01*
X013717Y024158D01*
X013943Y024158D01*
X014927Y024158D02*
X015154Y024158D01*
X012122Y024197D02*
X012122Y022426D01*
X010911Y022426D02*
X010685Y022426D01*
X010685Y024197D01*
X010911Y024197D01*
X011896Y024197D02*
X012122Y024197D01*
X012122Y022425D02*
X011896Y022425D01*
X014927Y022386D02*
X015153Y022386D01*
D18*
X013623Y023459D02*
X013623Y023684D01*
X013548Y023759D01*
X013248Y023759D01*
X013173Y023684D01*
X013173Y023459D01*
X013623Y023459D01*
X013548Y023919D02*
X013623Y023994D01*
X013623Y024145D01*
X013548Y024220D01*
X013473Y024220D01*
X013398Y024145D01*
X013323Y024220D01*
X013248Y024220D01*
X013173Y024145D01*
X013173Y023994D01*
X013248Y023919D01*
X013398Y024069D02*
X013398Y024145D01*
X010592Y024184D02*
X010592Y024034D01*
X010516Y023959D01*
X010516Y023799D02*
X010216Y023799D01*
X010141Y023724D01*
X010141Y023498D01*
X010592Y023498D01*
X010592Y023724D01*
X010516Y023799D01*
X010592Y024184D02*
X010516Y024259D01*
X010441Y024259D01*
X010141Y023959D01*
X010141Y024259D01*
D19*
X010813Y023754D03*
X011994Y023754D03*
X013844Y023715D03*
X015026Y023715D03*
M02*
