%
M48
M72
T01C0.0157
T02C0.0315
T03C0.0320
T04C0.0360
T05C0.0394
T06C0.0400
T07C0.0520
T08C0.1260
%
T01
X9711Y1028
X27191Y16855
X27191Y17209
X27191Y17563
X28215Y17878
X28215Y18233
X28215Y18587
X28136Y20083
X28805Y20083
X29474Y20083
X30065Y20083
X30419Y20083
X29553Y21191
X30734Y22839
X32467Y22800
X32467Y25516
X32467Y25910
X30419Y26147
X28766Y28233
X21522Y28469
X16404Y26697
X15183Y24965
X14789Y23193
X16600Y21894
X16443Y20752
X16049Y20280
X14711Y17878
X15537Y17170
X18963Y21776
X20813Y22878
X22781Y20674
X23687Y22130
X24750Y20359
X26404Y20398
X26404Y19965
X26404Y20831
X26837Y21500
X27427Y21500
X27427Y22052
X27545Y20083
X31285Y18233
X31876Y19256
X32348Y19256
X33569Y19768
X33963Y19256
X32506Y15241
X31561Y13941
X31561Y13587
X22624Y18666
X17270Y23075
X13057Y28154
T02
X13522Y31351
X12522Y31351
X11522Y31351
X10522Y31351
X14522Y31351
X15522Y31351
X16522Y31351
X17522Y31351
X18522Y31351
X19522Y31351
X20522Y31351
X21522Y31351
X22522Y31351
X23522Y31351
X24522Y31351
X25522Y31351
X26522Y31351
X27522Y31351
X28522Y31351
X29522Y31351
T03
X15734Y26410
X15734Y25410
X28238Y2111
X28738Y1361
X29238Y2111
T04
X13404Y21776
X12404Y21776
X10404Y21776
X8404Y21776
X6404Y21776
X6404Y24776
X8404Y24776
X10404Y24776
X12404Y24776
X13404Y24776
T05
X35522Y23922
T06
X35522Y24922
X35522Y25922
X35522Y26922
X35522Y27922
X35522Y28922
X35404Y21776
X35404Y20776
X35404Y19776
X35404Y18776
X35404Y17229
X35404Y16229
X35404Y15229
X34404Y15229
X34404Y16229
X34404Y17229
X35065Y12776
X35065Y11776
X35065Y10776
X35104Y9008
X35104Y8008
X33420Y3001
X33420Y1221
X30860Y1221
X30860Y3001
X24420Y3001
X24420Y1221
X21860Y1221
X21860Y3001
X19920Y3001
X19920Y1221
X17360Y1221
X17360Y3001
X15420Y3001
X15420Y1221
X12860Y1221
X12860Y3001
X6904Y16119
X6904Y17119
X6904Y18776
X6904Y19776
X4250Y26811
X3250Y26811
X2250Y26811
X1250Y26811
T07
X7904Y27296
X7904Y29266
T08
X7372Y5760
X34144Y5760
X34144Y31351
X7372Y31351
M30
