G75*
G70*
%OFA0B0*%
%FSLAX24Y24*%
%IPPOS*%
%LPD*%
%AMOC8*
5,1,8,0,0,1.08239X$1,22.5*
%
%ADD10C,0.0000*%
%ADD11C,0.1300*%
%ADD12R,0.0555X0.0555*%
%ADD13C,0.0555*%
%ADD14R,0.0631X0.0552*%
%ADD15C,0.0640*%
%ADD16R,0.0510X0.0260*%
%ADD17R,0.0260X0.0510*%
%ADD18OC8,0.0640*%
%ADD19R,0.0640X0.0640*%
%ADD20C,0.0700*%
%ADD21R,0.0634X0.0634*%
%ADD22C,0.0740*%
%ADD23R,0.0552X0.0631*%
%ADD24C,0.0600*%
%ADD25C,0.0820*%
%ADD26R,0.0820X0.0250*%
%ADD27C,0.0560*%
%ADD28R,0.0827X0.0827*%
D10*
X000222Y000150D02*
X000222Y032512D01*
X036396Y032512D01*
X036396Y000150D01*
X000222Y000150D01*
X006742Y005760D02*
X006744Y005810D01*
X006750Y005860D01*
X006760Y005909D01*
X006774Y005957D01*
X006791Y006004D01*
X006812Y006049D01*
X006837Y006093D01*
X006865Y006134D01*
X006897Y006173D01*
X006931Y006210D01*
X006968Y006244D01*
X007008Y006274D01*
X007050Y006301D01*
X007094Y006325D01*
X007140Y006346D01*
X007187Y006362D01*
X007235Y006375D01*
X007285Y006384D01*
X007334Y006389D01*
X007385Y006390D01*
X007435Y006387D01*
X007484Y006380D01*
X007533Y006369D01*
X007581Y006354D01*
X007627Y006336D01*
X007672Y006314D01*
X007715Y006288D01*
X007756Y006259D01*
X007795Y006227D01*
X007831Y006192D01*
X007863Y006154D01*
X007893Y006114D01*
X007920Y006071D01*
X007943Y006027D01*
X007962Y005981D01*
X007978Y005933D01*
X007990Y005884D01*
X007998Y005835D01*
X008002Y005785D01*
X008002Y005735D01*
X007998Y005685D01*
X007990Y005636D01*
X007978Y005587D01*
X007962Y005539D01*
X007943Y005493D01*
X007920Y005449D01*
X007893Y005406D01*
X007863Y005366D01*
X007831Y005328D01*
X007795Y005293D01*
X007756Y005261D01*
X007715Y005232D01*
X007672Y005206D01*
X007627Y005184D01*
X007581Y005166D01*
X007533Y005151D01*
X007484Y005140D01*
X007435Y005133D01*
X007385Y005130D01*
X007334Y005131D01*
X007285Y005136D01*
X007235Y005145D01*
X007187Y005158D01*
X007140Y005174D01*
X007094Y005195D01*
X007050Y005219D01*
X007008Y005246D01*
X006968Y005276D01*
X006931Y005310D01*
X006897Y005347D01*
X006865Y005386D01*
X006837Y005427D01*
X006812Y005471D01*
X006791Y005516D01*
X006774Y005563D01*
X006760Y005611D01*
X006750Y005660D01*
X006744Y005710D01*
X006742Y005760D01*
X033514Y005760D02*
X033516Y005810D01*
X033522Y005860D01*
X033532Y005909D01*
X033546Y005957D01*
X033563Y006004D01*
X033584Y006049D01*
X033609Y006093D01*
X033637Y006134D01*
X033669Y006173D01*
X033703Y006210D01*
X033740Y006244D01*
X033780Y006274D01*
X033822Y006301D01*
X033866Y006325D01*
X033912Y006346D01*
X033959Y006362D01*
X034007Y006375D01*
X034057Y006384D01*
X034106Y006389D01*
X034157Y006390D01*
X034207Y006387D01*
X034256Y006380D01*
X034305Y006369D01*
X034353Y006354D01*
X034399Y006336D01*
X034444Y006314D01*
X034487Y006288D01*
X034528Y006259D01*
X034567Y006227D01*
X034603Y006192D01*
X034635Y006154D01*
X034665Y006114D01*
X034692Y006071D01*
X034715Y006027D01*
X034734Y005981D01*
X034750Y005933D01*
X034762Y005884D01*
X034770Y005835D01*
X034774Y005785D01*
X034774Y005735D01*
X034770Y005685D01*
X034762Y005636D01*
X034750Y005587D01*
X034734Y005539D01*
X034715Y005493D01*
X034692Y005449D01*
X034665Y005406D01*
X034635Y005366D01*
X034603Y005328D01*
X034567Y005293D01*
X034528Y005261D01*
X034487Y005232D01*
X034444Y005206D01*
X034399Y005184D01*
X034353Y005166D01*
X034305Y005151D01*
X034256Y005140D01*
X034207Y005133D01*
X034157Y005130D01*
X034106Y005131D01*
X034057Y005136D01*
X034007Y005145D01*
X033959Y005158D01*
X033912Y005174D01*
X033866Y005195D01*
X033822Y005219D01*
X033780Y005246D01*
X033740Y005276D01*
X033703Y005310D01*
X033669Y005347D01*
X033637Y005386D01*
X033609Y005427D01*
X033584Y005471D01*
X033563Y005516D01*
X033546Y005563D01*
X033532Y005611D01*
X033522Y005660D01*
X033516Y005710D01*
X033514Y005760D01*
X033514Y031351D02*
X033516Y031401D01*
X033522Y031451D01*
X033532Y031500D01*
X033546Y031548D01*
X033563Y031595D01*
X033584Y031640D01*
X033609Y031684D01*
X033637Y031725D01*
X033669Y031764D01*
X033703Y031801D01*
X033740Y031835D01*
X033780Y031865D01*
X033822Y031892D01*
X033866Y031916D01*
X033912Y031937D01*
X033959Y031953D01*
X034007Y031966D01*
X034057Y031975D01*
X034106Y031980D01*
X034157Y031981D01*
X034207Y031978D01*
X034256Y031971D01*
X034305Y031960D01*
X034353Y031945D01*
X034399Y031927D01*
X034444Y031905D01*
X034487Y031879D01*
X034528Y031850D01*
X034567Y031818D01*
X034603Y031783D01*
X034635Y031745D01*
X034665Y031705D01*
X034692Y031662D01*
X034715Y031618D01*
X034734Y031572D01*
X034750Y031524D01*
X034762Y031475D01*
X034770Y031426D01*
X034774Y031376D01*
X034774Y031326D01*
X034770Y031276D01*
X034762Y031227D01*
X034750Y031178D01*
X034734Y031130D01*
X034715Y031084D01*
X034692Y031040D01*
X034665Y030997D01*
X034635Y030957D01*
X034603Y030919D01*
X034567Y030884D01*
X034528Y030852D01*
X034487Y030823D01*
X034444Y030797D01*
X034399Y030775D01*
X034353Y030757D01*
X034305Y030742D01*
X034256Y030731D01*
X034207Y030724D01*
X034157Y030721D01*
X034106Y030722D01*
X034057Y030727D01*
X034007Y030736D01*
X033959Y030749D01*
X033912Y030765D01*
X033866Y030786D01*
X033822Y030810D01*
X033780Y030837D01*
X033740Y030867D01*
X033703Y030901D01*
X033669Y030938D01*
X033637Y030977D01*
X033609Y031018D01*
X033584Y031062D01*
X033563Y031107D01*
X033546Y031154D01*
X033532Y031202D01*
X033522Y031251D01*
X033516Y031301D01*
X033514Y031351D01*
X006742Y031351D02*
X006744Y031401D01*
X006750Y031451D01*
X006760Y031500D01*
X006774Y031548D01*
X006791Y031595D01*
X006812Y031640D01*
X006837Y031684D01*
X006865Y031725D01*
X006897Y031764D01*
X006931Y031801D01*
X006968Y031835D01*
X007008Y031865D01*
X007050Y031892D01*
X007094Y031916D01*
X007140Y031937D01*
X007187Y031953D01*
X007235Y031966D01*
X007285Y031975D01*
X007334Y031980D01*
X007385Y031981D01*
X007435Y031978D01*
X007484Y031971D01*
X007533Y031960D01*
X007581Y031945D01*
X007627Y031927D01*
X007672Y031905D01*
X007715Y031879D01*
X007756Y031850D01*
X007795Y031818D01*
X007831Y031783D01*
X007863Y031745D01*
X007893Y031705D01*
X007920Y031662D01*
X007943Y031618D01*
X007962Y031572D01*
X007978Y031524D01*
X007990Y031475D01*
X007998Y031426D01*
X008002Y031376D01*
X008002Y031326D01*
X007998Y031276D01*
X007990Y031227D01*
X007978Y031178D01*
X007962Y031130D01*
X007943Y031084D01*
X007920Y031040D01*
X007893Y030997D01*
X007863Y030957D01*
X007831Y030919D01*
X007795Y030884D01*
X007756Y030852D01*
X007715Y030823D01*
X007672Y030797D01*
X007627Y030775D01*
X007581Y030757D01*
X007533Y030742D01*
X007484Y030731D01*
X007435Y030724D01*
X007385Y030721D01*
X007334Y030722D01*
X007285Y030727D01*
X007235Y030736D01*
X007187Y030749D01*
X007140Y030765D01*
X007094Y030786D01*
X007050Y030810D01*
X007008Y030837D01*
X006968Y030867D01*
X006931Y030901D01*
X006897Y030938D01*
X006865Y030977D01*
X006837Y031018D01*
X006812Y031062D01*
X006791Y031107D01*
X006774Y031154D01*
X006760Y031202D01*
X006750Y031251D01*
X006744Y031301D01*
X006742Y031351D01*
D11*
X007372Y031351D03*
X034144Y031351D03*
X034144Y005760D03*
X007372Y005760D03*
D12*
X010522Y031351D03*
D13*
X011522Y031351D03*
X012522Y031351D03*
X013522Y031351D03*
X014522Y031351D03*
X015522Y031351D03*
X016522Y031351D03*
X017522Y031351D03*
X018522Y031351D03*
X019522Y031351D03*
X020522Y031351D03*
X021522Y031351D03*
X022522Y031351D03*
X023522Y031351D03*
X024522Y031351D03*
X025522Y031351D03*
X026522Y031351D03*
X027522Y031351D03*
X028522Y031351D03*
X029522Y031351D03*
D14*
X021797Y026087D03*
X021797Y025339D03*
X020774Y025339D03*
X020774Y026087D03*
X023904Y021650D03*
X023904Y020902D03*
X010813Y001796D03*
X010813Y001048D03*
D15*
X012560Y001221D02*
X013160Y001221D01*
X013160Y003001D02*
X012560Y003001D01*
X015120Y003001D02*
X015720Y003001D01*
X017060Y003001D02*
X017660Y003001D01*
X017660Y001221D02*
X017060Y001221D01*
X015720Y001221D02*
X015120Y001221D01*
X019620Y001221D02*
X020220Y001221D01*
X021560Y001221D02*
X022160Y001221D01*
X022160Y003001D02*
X021560Y003001D01*
X020220Y003001D02*
X019620Y003001D01*
X024120Y003001D02*
X024720Y003001D01*
X024720Y001221D02*
X024120Y001221D01*
X030560Y001221D02*
X031160Y001221D01*
X031160Y003001D02*
X030560Y003001D01*
X033120Y003001D02*
X033720Y003001D01*
X033720Y001221D02*
X033120Y001221D01*
X034804Y008008D02*
X035404Y008008D01*
X035404Y009008D02*
X034804Y009008D01*
X034765Y010776D02*
X035365Y010776D01*
X035365Y011776D02*
X034765Y011776D01*
X034765Y012776D02*
X035365Y012776D01*
X035104Y018776D02*
X035704Y018776D01*
X035704Y019776D02*
X035104Y019776D01*
X035104Y020776D02*
X035704Y020776D01*
X035704Y021776D02*
X035104Y021776D01*
X007204Y019776D02*
X006604Y019776D01*
X006604Y018776D02*
X007204Y018776D01*
X007204Y017119D02*
X006604Y017119D01*
X006604Y016119D02*
X007204Y016119D01*
X004250Y026511D02*
X004250Y027111D01*
X003250Y027111D02*
X003250Y026511D01*
X002250Y026511D02*
X002250Y027111D01*
X001250Y027111D02*
X001250Y026511D01*
D16*
X025349Y024601D03*
X025349Y024291D03*
X025349Y023981D03*
X025349Y023671D03*
X025349Y023361D03*
X025349Y023051D03*
X025349Y022741D03*
X025349Y022431D03*
X025349Y022121D03*
X025349Y021811D03*
X025349Y021501D03*
X025349Y021191D03*
X025349Y020881D03*
X025349Y020571D03*
X025349Y020261D03*
X025349Y019951D03*
X031459Y019951D03*
X031459Y020261D03*
X031459Y020571D03*
X031459Y020881D03*
X031459Y021191D03*
X031459Y021501D03*
X031459Y021811D03*
X031459Y022121D03*
X031459Y022431D03*
X031459Y022741D03*
X031459Y023051D03*
X031459Y023361D03*
X031459Y023671D03*
X031459Y023981D03*
X031459Y024291D03*
X031459Y024601D03*
D17*
X030729Y025331D03*
X030419Y025331D03*
X030109Y025331D03*
X029799Y025331D03*
X029489Y025331D03*
X029179Y025331D03*
X028869Y025331D03*
X028559Y025331D03*
X028249Y025331D03*
X027939Y025331D03*
X027629Y025331D03*
X027319Y025331D03*
X027009Y025331D03*
X026699Y025331D03*
X026389Y025331D03*
X026079Y025331D03*
X026079Y019221D03*
X026389Y019221D03*
X026699Y019221D03*
X027009Y019221D03*
X027319Y019221D03*
X027629Y019221D03*
X027939Y019221D03*
X028249Y019221D03*
X028559Y019221D03*
X028869Y019221D03*
X029179Y019221D03*
X029489Y019221D03*
X029799Y019221D03*
X030109Y019221D03*
X030419Y019221D03*
X030729Y019221D03*
D18*
X034404Y017229D03*
X035404Y017229D03*
X035404Y016229D03*
X034404Y016229D03*
X034404Y015229D03*
D19*
X035404Y015229D03*
D20*
X029238Y002111D03*
X028738Y001361D03*
X028238Y002111D03*
D21*
X035522Y023922D03*
D22*
X035522Y024922D03*
X035522Y025922D03*
X035522Y026922D03*
X035522Y027922D03*
X035522Y028922D03*
D23*
X018825Y024807D03*
X018077Y024807D03*
X028089Y003536D03*
X028837Y003536D03*
X011541Y002760D03*
X010793Y002760D03*
D24*
X010404Y021496D02*
X010404Y022056D01*
X012404Y022056D02*
X012404Y021496D01*
X013404Y021496D02*
X013404Y022056D01*
X013404Y024496D02*
X013404Y025056D01*
X012404Y025056D02*
X012404Y024496D01*
X010404Y024496D02*
X010404Y025056D01*
X008404Y025056D02*
X008404Y024496D01*
X006404Y024496D02*
X006404Y025056D01*
X006404Y022056D02*
X006404Y021496D01*
X008404Y021496D02*
X008404Y022056D01*
D25*
X008294Y027296D02*
X007514Y027296D01*
X007514Y029266D02*
X008294Y029266D01*
D26*
X017481Y027211D03*
X017481Y026711D03*
X017481Y026211D03*
X017481Y025711D03*
X019421Y025711D03*
X019421Y026211D03*
X019421Y026711D03*
X019421Y027211D03*
D27*
X015734Y026410D03*
X015734Y025410D03*
D28*
X014435Y024059D03*
X014435Y022485D03*
X011404Y022524D03*
X011404Y024099D03*
M02*
