G75*
G70*
%OFA0B0*%
%FSLAX24Y24*%
%IPPOS*%
%LPD*%
%AMOC8*
5,1,8,0,0,1.08239X$1,22.5*
%
%ADD10C,0.0000*%
%ADD11R,0.0217X0.0472*%
%ADD12R,0.0551X0.1181*%
%ADD13R,0.0394X0.0394*%
%ADD14R,0.0787X0.0787*%
%ADD15R,0.0236X0.0748*%
%ADD16R,0.0827X0.1102*%
%ADD17R,0.0512X0.0591*%
%ADD18R,0.0551X0.0394*%
%ADD19R,0.0236X0.0276*%
%ADD20R,0.0354X0.0276*%
%ADD21R,0.0394X0.0551*%
%ADD22R,0.0591X0.0512*%
%ADD23R,0.0591X0.0591*%
%ADD24R,0.1024X0.1417*%
%ADD25R,0.2000X0.0700*%
D10*
X000222Y000150D02*
X000222Y032512D01*
X036396Y032512D01*
X036396Y000150D01*
X000222Y000150D01*
X006742Y005760D02*
X006744Y005810D01*
X006750Y005860D01*
X006760Y005909D01*
X006774Y005957D01*
X006791Y006004D01*
X006812Y006049D01*
X006837Y006093D01*
X006865Y006134D01*
X006897Y006173D01*
X006931Y006210D01*
X006968Y006244D01*
X007008Y006274D01*
X007050Y006301D01*
X007094Y006325D01*
X007140Y006346D01*
X007187Y006362D01*
X007235Y006375D01*
X007285Y006384D01*
X007334Y006389D01*
X007385Y006390D01*
X007435Y006387D01*
X007484Y006380D01*
X007533Y006369D01*
X007581Y006354D01*
X007627Y006336D01*
X007672Y006314D01*
X007715Y006288D01*
X007756Y006259D01*
X007795Y006227D01*
X007831Y006192D01*
X007863Y006154D01*
X007893Y006114D01*
X007920Y006071D01*
X007943Y006027D01*
X007962Y005981D01*
X007978Y005933D01*
X007990Y005884D01*
X007998Y005835D01*
X008002Y005785D01*
X008002Y005735D01*
X007998Y005685D01*
X007990Y005636D01*
X007978Y005587D01*
X007962Y005539D01*
X007943Y005493D01*
X007920Y005449D01*
X007893Y005406D01*
X007863Y005366D01*
X007831Y005328D01*
X007795Y005293D01*
X007756Y005261D01*
X007715Y005232D01*
X007672Y005206D01*
X007627Y005184D01*
X007581Y005166D01*
X007533Y005151D01*
X007484Y005140D01*
X007435Y005133D01*
X007385Y005130D01*
X007334Y005131D01*
X007285Y005136D01*
X007235Y005145D01*
X007187Y005158D01*
X007140Y005174D01*
X007094Y005195D01*
X007050Y005219D01*
X007008Y005246D01*
X006968Y005276D01*
X006931Y005310D01*
X006897Y005347D01*
X006865Y005386D01*
X006837Y005427D01*
X006812Y005471D01*
X006791Y005516D01*
X006774Y005563D01*
X006760Y005611D01*
X006750Y005660D01*
X006744Y005710D01*
X006742Y005760D01*
X033514Y005760D02*
X033516Y005810D01*
X033522Y005860D01*
X033532Y005909D01*
X033546Y005957D01*
X033563Y006004D01*
X033584Y006049D01*
X033609Y006093D01*
X033637Y006134D01*
X033669Y006173D01*
X033703Y006210D01*
X033740Y006244D01*
X033780Y006274D01*
X033822Y006301D01*
X033866Y006325D01*
X033912Y006346D01*
X033959Y006362D01*
X034007Y006375D01*
X034057Y006384D01*
X034106Y006389D01*
X034157Y006390D01*
X034207Y006387D01*
X034256Y006380D01*
X034305Y006369D01*
X034353Y006354D01*
X034399Y006336D01*
X034444Y006314D01*
X034487Y006288D01*
X034528Y006259D01*
X034567Y006227D01*
X034603Y006192D01*
X034635Y006154D01*
X034665Y006114D01*
X034692Y006071D01*
X034715Y006027D01*
X034734Y005981D01*
X034750Y005933D01*
X034762Y005884D01*
X034770Y005835D01*
X034774Y005785D01*
X034774Y005735D01*
X034770Y005685D01*
X034762Y005636D01*
X034750Y005587D01*
X034734Y005539D01*
X034715Y005493D01*
X034692Y005449D01*
X034665Y005406D01*
X034635Y005366D01*
X034603Y005328D01*
X034567Y005293D01*
X034528Y005261D01*
X034487Y005232D01*
X034444Y005206D01*
X034399Y005184D01*
X034353Y005166D01*
X034305Y005151D01*
X034256Y005140D01*
X034207Y005133D01*
X034157Y005130D01*
X034106Y005131D01*
X034057Y005136D01*
X034007Y005145D01*
X033959Y005158D01*
X033912Y005174D01*
X033866Y005195D01*
X033822Y005219D01*
X033780Y005246D01*
X033740Y005276D01*
X033703Y005310D01*
X033669Y005347D01*
X033637Y005386D01*
X033609Y005427D01*
X033584Y005471D01*
X033563Y005516D01*
X033546Y005563D01*
X033532Y005611D01*
X033522Y005660D01*
X033516Y005710D01*
X033514Y005760D01*
X033514Y031351D02*
X033516Y031401D01*
X033522Y031451D01*
X033532Y031500D01*
X033546Y031548D01*
X033563Y031595D01*
X033584Y031640D01*
X033609Y031684D01*
X033637Y031725D01*
X033669Y031764D01*
X033703Y031801D01*
X033740Y031835D01*
X033780Y031865D01*
X033822Y031892D01*
X033866Y031916D01*
X033912Y031937D01*
X033959Y031953D01*
X034007Y031966D01*
X034057Y031975D01*
X034106Y031980D01*
X034157Y031981D01*
X034207Y031978D01*
X034256Y031971D01*
X034305Y031960D01*
X034353Y031945D01*
X034399Y031927D01*
X034444Y031905D01*
X034487Y031879D01*
X034528Y031850D01*
X034567Y031818D01*
X034603Y031783D01*
X034635Y031745D01*
X034665Y031705D01*
X034692Y031662D01*
X034715Y031618D01*
X034734Y031572D01*
X034750Y031524D01*
X034762Y031475D01*
X034770Y031426D01*
X034774Y031376D01*
X034774Y031326D01*
X034770Y031276D01*
X034762Y031227D01*
X034750Y031178D01*
X034734Y031130D01*
X034715Y031084D01*
X034692Y031040D01*
X034665Y030997D01*
X034635Y030957D01*
X034603Y030919D01*
X034567Y030884D01*
X034528Y030852D01*
X034487Y030823D01*
X034444Y030797D01*
X034399Y030775D01*
X034353Y030757D01*
X034305Y030742D01*
X034256Y030731D01*
X034207Y030724D01*
X034157Y030721D01*
X034106Y030722D01*
X034057Y030727D01*
X034007Y030736D01*
X033959Y030749D01*
X033912Y030765D01*
X033866Y030786D01*
X033822Y030810D01*
X033780Y030837D01*
X033740Y030867D01*
X033703Y030901D01*
X033669Y030938D01*
X033637Y030977D01*
X033609Y031018D01*
X033584Y031062D01*
X033563Y031107D01*
X033546Y031154D01*
X033532Y031202D01*
X033522Y031251D01*
X033516Y031301D01*
X033514Y031351D01*
X006742Y031351D02*
X006744Y031401D01*
X006750Y031451D01*
X006760Y031500D01*
X006774Y031548D01*
X006791Y031595D01*
X006812Y031640D01*
X006837Y031684D01*
X006865Y031725D01*
X006897Y031764D01*
X006931Y031801D01*
X006968Y031835D01*
X007008Y031865D01*
X007050Y031892D01*
X007094Y031916D01*
X007140Y031937D01*
X007187Y031953D01*
X007235Y031966D01*
X007285Y031975D01*
X007334Y031980D01*
X007385Y031981D01*
X007435Y031978D01*
X007484Y031971D01*
X007533Y031960D01*
X007581Y031945D01*
X007627Y031927D01*
X007672Y031905D01*
X007715Y031879D01*
X007756Y031850D01*
X007795Y031818D01*
X007831Y031783D01*
X007863Y031745D01*
X007893Y031705D01*
X007920Y031662D01*
X007943Y031618D01*
X007962Y031572D01*
X007978Y031524D01*
X007990Y031475D01*
X007998Y031426D01*
X008002Y031376D01*
X008002Y031326D01*
X007998Y031276D01*
X007990Y031227D01*
X007978Y031178D01*
X007962Y031130D01*
X007943Y031084D01*
X007920Y031040D01*
X007893Y030997D01*
X007863Y030957D01*
X007831Y030919D01*
X007795Y030884D01*
X007756Y030852D01*
X007715Y030823D01*
X007672Y030797D01*
X007627Y030775D01*
X007581Y030757D01*
X007533Y030742D01*
X007484Y030731D01*
X007435Y030724D01*
X007385Y030721D01*
X007334Y030722D01*
X007285Y030727D01*
X007235Y030736D01*
X007187Y030749D01*
X007140Y030765D01*
X007094Y030786D01*
X007050Y030810D01*
X007008Y030837D01*
X006968Y030867D01*
X006931Y030901D01*
X006897Y030938D01*
X006865Y030977D01*
X006837Y031018D01*
X006812Y031062D01*
X006791Y031107D01*
X006774Y031154D01*
X006760Y031202D01*
X006750Y031251D01*
X006744Y031301D01*
X006742Y031351D01*
D11*
X015530Y019288D03*
X016278Y019288D03*
X016278Y018264D03*
X015904Y018264D03*
X015530Y018264D03*
D12*
X019904Y018831D03*
X019904Y020721D03*
X009404Y020221D03*
X009404Y018331D03*
D13*
X011549Y019449D03*
X012337Y019449D03*
D14*
X013904Y019563D03*
X013904Y017989D03*
D15*
X003333Y029099D03*
X002939Y029099D03*
X002545Y029099D03*
X002152Y029099D03*
D16*
X000911Y030024D03*
X004573Y030024D03*
D17*
X027612Y030485D03*
X028360Y030485D03*
X033037Y022563D03*
X033785Y022563D03*
X033785Y021619D03*
X033037Y021619D03*
D18*
X030333Y028729D03*
X030333Y029477D03*
X029467Y029103D03*
X015337Y024276D03*
X014470Y024650D03*
X014470Y023902D03*
X014470Y022650D03*
X015337Y022276D03*
X014470Y021902D03*
D19*
X026100Y001638D03*
X026612Y001638D03*
D20*
X026356Y002583D03*
D21*
X012585Y028941D03*
X012959Y029807D03*
X012211Y029807D03*
D22*
X029868Y022977D03*
X029868Y022229D03*
X033136Y012504D03*
X033136Y011756D03*
D23*
X009711Y002977D03*
X009711Y001599D03*
D24*
X011344Y011382D03*
X022880Y011382D03*
D25*
X022574Y022603D03*
X026374Y022603D03*
M02*
